<svg width="336" height="100" viewBox="0 0 336 100" fill="none" xmlns="http://www.w3.org/2000/svg">
<g clip-path="url(#clip0)">
<path d="M124.944 40.9131C124.944 30.6749 122.051 25.4188 116.265 25.131C113.962 25.0213 111.715 25.3914 109.528 26.248C107.782 26.8784 106.607 27.5021 105.989 28.1325V52.5698C109.691 54.9134 112.978 56.003 115.844 55.8317C121.908 55.4274 124.944 50.4591 124.944 40.9131ZM132.082 41.3379C132.082 46.5393 130.873 50.8566 128.441 54.2898C125.732 58.1754 121.976 60.1764 117.175 60.2861C113.555 60.4026 109.827 59.2581 105.989 56.8596V79.0697L99.7822 76.8357V27.5363C100.801 26.2754 102.112 25.1926 103.701 24.2744C107.395 22.102 111.884 20.985 117.168 20.9302L117.256 21.0193C122.085 20.9576 125.806 22.9586 128.421 27.0155C130.859 30.7366 132.082 35.5062 132.082 41.3379Z" fill="#646464"/>
<path d="M169.572 56.0173C169.572 63.0142 168.88 67.8597 167.497 70.5539C166.107 73.2482 163.463 75.3995 159.558 77.0009C156.392 78.2656 152.968 78.9529 149.294 79.0697L148.27 75.1108C152.006 74.5953 154.636 74.0798 156.162 73.5644C159.165 72.5334 161.226 70.9526 162.358 68.8357C163.267 67.1105 163.714 63.8183 163.714 58.9453V57.3095C159.477 59.2614 155.036 60.2306 150.392 60.2306C147.341 60.2306 144.65 59.2614 142.331 57.3095C139.728 55.1857 138.426 52.4914 138.426 49.2267V23.0815L144.623 20.9302V47.2473C144.623 50.0584 145.518 52.2234 147.307 53.7423C149.097 55.2613 151.416 55.9898 154.257 55.9349C157.097 55.873 160.141 54.7596 163.375 52.5808V21.8787H169.572V56.0173Z" fill="#646464"/>
<path d="M193.796 60.3754C193.061 60.4375 192.387 60.465 191.767 60.465C188.28 60.465 185.563 59.6169 183.621 57.9138C181.685 56.2107 180.714 53.8594 180.714 50.86V26.037H176.493V22.0723H180.714V11.5432L186.871 9.30225V22.0723H193.796V26.037H186.871V50.6876C186.871 53.0527 187.491 54.7282 188.732 55.7073C189.798 56.5141 191.49 56.9761 193.796 57.0933V60.3754Z" fill="#646464"/>
<path d="M231.287 59.3023H225.135V35.3121C225.135 32.8709 224.569 30.7698 223.445 29.0154C222.146 27.0298 220.342 26.037 218.027 26.037C215.207 26.037 211.68 27.5398 207.446 30.5454V59.3023H201.294V1.95838L207.446 0V26.1186C211.377 23.2286 215.671 21.7802 220.336 21.7802C223.593 21.7802 226.232 22.8886 228.251 25.0986C230.277 27.3086 231.287 30.0626 231.287 33.3537V59.3023Z" fill="#646464"/>
<path d="M264.297 40.0526C264.297 36.0929 263.558 32.8231 262.087 30.2362C260.338 27.0836 257.619 25.421 253.944 25.2486C247.15 25.6487 243.76 30.6018 243.76 40.094C243.76 44.4469 244.465 48.0824 245.889 51.0004C247.706 54.7187 250.432 56.5536 254.066 56.4916C260.887 56.4364 264.297 50.959 264.297 40.0526ZM271.084 40.094C271.084 45.73 269.667 50.4209 266.84 54.1668C263.728 58.361 259.429 60.4651 253.944 60.4651C248.506 60.4651 244.269 58.361 241.211 54.1668C238.438 50.4209 237.055 45.73 237.055 40.094C237.055 34.796 238.553 30.3396 241.55 26.7111C244.716 22.8617 248.879 20.9302 254.025 20.9302C259.172 20.9302 263.362 22.8617 266.589 26.7111C269.586 30.3396 271.084 34.796 271.084 40.094Z" fill="#646464"/>
<path d="M306.844 59.3023H300.641V33.8393C300.641 31.0457 299.806 28.8669 298.136 27.2959C296.467 25.7318 294.241 24.9737 291.465 25.0351C288.519 25.0898 285.716 26.0597 283.055 27.938V59.3023H276.852V27.1662C280.422 24.5502 283.707 22.8426 286.707 22.0435C289.537 21.299 292.035 20.9302 294.186 20.9302C295.659 20.9302 297.044 21.0736 298.347 21.3605C300.783 21.9274 302.765 22.9792 304.292 24.5229C305.996 26.2304 306.844 28.2795 306.844 30.6769V59.3023Z" fill="#646464"/>
<path d="M38.4911 2.32633C35.2785 2.34123 32.2106 2.61475 29.5112 3.0916C21.5589 4.49411 20.1151 7.42968 20.1151 12.8434V19.9932H38.9073V22.3765H20.1151H13.0626C7.60103 22.3765 2.81876 25.6536 1.32292 31.8877C-0.402501 39.0335 -0.479033 43.4926 1.32292 50.954C2.65874 56.5079 5.84884 60.4652 11.3104 60.4652H17.7715V51.8942C17.7715 45.7021 23.1382 40.2401 29.5112 40.2401H48.2814C53.5064 40.2401 57.6775 35.9454 57.6775 30.707V12.8434C57.6775 7.75927 53.3812 3.94012 48.2814 3.0916C45.0532 2.55514 41.7037 2.31142 38.4911 2.32633ZM28.3284 8.07681C30.2696 8.07681 31.8547 9.68512 31.8547 11.6627C31.8547 13.6332 30.2696 15.2266 28.3284 15.2266C26.3804 15.2266 24.8022 13.6332 24.8022 11.6627C24.8022 9.68512 26.3804 8.07681 28.3284 8.07681Z" fill="url(#paint0_linear)"/>
<path d="M59.6137 22.0933V30.4431C59.6137 36.9166 54.1946 42.3651 48.015 42.3651H29.4702C24.3905 42.3651 20.187 46.7682 20.187 51.9203V69.8253C20.187 74.9212 24.5623 77.9185 29.4702 79.3805C35.3473 81.1307 40.9832 81.447 48.015 79.3805C52.6892 78.0099 57.2983 75.2515 57.2983 69.8253V62.6589H38.7535V60.2701H57.2983H66.5815C71.9774 60.2701 73.9882 56.4583 75.8647 50.7369C77.8031 44.8468 77.7206 39.1825 75.8647 31.6265C74.5312 26.1863 71.9843 22.0933 66.5815 22.0933H59.6137ZM49.1836 67.4365C51.1082 67.4365 52.6675 69.0337 52.6675 71.0088C52.6675 72.9909 51.1082 74.6029 49.1836 74.6029C47.2658 74.6029 45.6996 72.9909 45.6996 71.0088C45.6996 69.0337 47.2658 67.4365 49.1836 67.4365Z" fill="url(#paint1_linear)"/>
</g>
<defs>
<linearGradient id="paint0_linear" x1="6.1335e-08" y1="2.32568" x2="43.2704" y2="39.2611" gradientUnits="userSpaceOnUse">
<stop stop-color="#5A9FD4"/>
<stop offset="1" stop-color="#306998"/>
</linearGradient>
<linearGradient id="paint1_linear" x1="48.7374" y1="70.4063" x2="33.1187" y2="48.7958" gradientUnits="userSpaceOnUse">
<stop stop-color="#FFD43B"/>
<stop offset="1" stop-color="#FFE873"/>
</linearGradient>
<clipPath id="clip0">
<rect width="335.106" height="100" fill="white"/>
</clipPath>
</defs>
</svg>
